# xmcd
#
# Track frame offsets:
#	150
#	18976
#	38105
#	59770
#	79070
#	96790
#	108497
#	128392
#	147166
#	166771
#	183027
#	201147
#	221874
#
# Disc length: 3212 seconds
# Revision: 0
# Processed by: cddbd v1.5.2PL0 Copyright (c) Steve Scherf et al.
# Submitted via: dBpowerAMP V12.0
#
DISCID=ac0c8a0d
DTITLE=Calico The Band - Under Blue Skies
DYEAR=2017
DGENRE=Country
TTITLE0=Fine Line
TTITLE1=Cold Cold Love
TTITLE2=The 405
TTITLE3=Roll Away The Stone
TTITLE4=The Leaving Kind
TTITLE5=California Dreamin'
TTITLE6=Free Man
TTITLE7=Under Blue Skies
TTITLE8=Fly Me Away
TTITLE9=Love Gets in The Way
TTITLE10=Come To Me
TTITLE11=Into The Unknown
TTITLE12=Ladies of the Canyon
EXTD=
EXTT0=
EXTT1=
EXTT2=
EXTT3=
EXTT4=
EXTT5=
EXTT6=
EXTT7=
EXTT8=
EXTT9=
EXTT10=
EXTT11=
EXTT12=
PLAYORDER=
